# xmcd
#
# Track frame offsets:
#	150
#	46629
#	74520
#	103562
#	139604
#	180140
#	216895
#
# Disc length: 3851
#
# Revision: 1
# Processed by: cddbd v1.5.1PL0 Copyright (c) Steve Scherf et al.
# Submitted via: dBpowerAMP V4.0
# Normalized: r0:TRMNUM
#
DISCID=570f0907
DTITLE=Gov't Mule - live at House of Blues 24-04-'03 [CD2]
DYEAR=2003
DGENRE=R&B
TTITLE0=If i had possessions and Rollin' and tumblin'
TTITLE1=Drum Solo
TTITLE2=Beautifully Broken
TTITLE3=32-20 Blues
TTITLE4=Wasted Time and Drivin' Rain
TTITLE5=(Keyboard Intro) Soulshine
TTITLE6=Mule and I've Been Workin'
EXTD=
EXTT0=
EXTT1=
EXTT2=
EXTT3=
EXTT4=
EXTT5=
EXTT6=
PLAYORDER=
